<?xml version="1.0" encoding="UTF-8"?>
<svg id="Laag_2" data-name="Laag 2" xmlns="http://www.w3.org/2000/svg" viewBox="0 0 478 537.22">
  <defs>
    <style>
      .cls-1 {
        stroke-width: 0px;
      }
    </style>
  </defs>
  <g id="Laag_1-2" data-name="Laag 1">
    <path class="cls-1" d="M0,537.22c1.45-4.76,3.33-9.2,5.91-13.59,2.44-4.15,2.84-9.61,3.65-14.57.47-2.89.54-5.58,1.97-8.47,1.69-3.41,2.28-7.7,2.19-11.58-.18-8.14,2.36-15.64,4.26-23.32.28-1.13.87-2.25.84-3.37-.18-7.49,3.33-14.11,4.84-21.2.62-2.9.92-5.88,1.69-8.73,1.87-6.87,3.79-13.72,5.97-20.49,1.3-4.05,2.87-8.07,4.8-11.86,3.38-6.64,4.97-13.68,5.77-20.99.21-1.96.99-3.86,1.18-5.82.41-4.39.06-8.97,3.75-12.35-1.18-6.21,2.89-10.65,5.24-15.67.34-.74.86-1.58.76-2.3-1.19-8.95,3.73-15.57,8.23-22.44,1.52-2.32,2.16-5.2,3.61-7.57,2.59-4.24,5.58-8.23,8.25-12.43,1.57-2.48,3.09-5.05,4.13-7.77.38-.99-.3-3.1-1.18-3.71-2.13-1.46-2.22-3.27-2.48-5.54-.6-5.24-1.82-10.4-2.64-15.61-.59-3.77-1.2-7.57-1.33-11.38-.31-9.06-.98-18.18-.25-27.18.4-4.98,2.45-9.85,1.99-15.09-1.19-13.4-.59-26.82,1.16-40.09,1.14-8.65,3.43-17.17,5.64-25.64,2.25-8.65,4.77-17.24,7.65-25.7,1.9-5.59,4.94-10.78,6.93-16.35,1.89-5.27,3.57-10.72,4.47-16.23,2.01-12.32,3.3-24.77,5.22-37.11,1.18-7.56,2.84-15.05,4.53-22.51,1.69-7.45,9.88-15.05,20.67-12.84,9.3,1.91,16.71,6.12,22.81,13.18,3.37,3.9,6.8,7.78,10.54,11.31,1.41,1.34,3.9,2.55,5.68,2.3,4.53-.65,9.14-1.56,12.32-5.61,2.12-2.7,4.24-5.77,7.09-7.44,2.79-1.64,6.51-2.42,9.8-2.35,5,.11,9.56-.04,13.51-3.62,1.39-1.26,2.87-1.93,5.33-1.21,4.98,1.46,10.07-.07,14.97-1.44,4.77-1.33,9.35-1.75,14.12.35,2.02.89,4.83,1.37,6.81.68,6.68-2.33,11.79,1.22,16.72,4.29,6.88,4.28,14.04,6.37,22.09,6.22,2.58-.05,5.28.83,7.77,1.72,3.69,1.31,7.35,2.8,10.84,4.57,4.82,2.44,7.6,1.91,11.27-2.49,6.7-8.02,13.31-16.13,20.27-23.92,4.57-5.12,10.25-8.94,16.54-11.79,6.17-2.79,12.64-2.99,19.1-1.82,5.92,1.07,9.29,5.61,11.98,10.51,4.97,9.04,7.18,18.93,8.64,29.04,1.05,7.25,2.2,14.48,3.48,21.69.45,2.54,1.43,4.99,2.32,8.03-.43.73-1.12,2.06-1.95,3.29-2.76,4.15-3.82,8.16-1,12.98,1.05,1.8.18,4.75.11,7.17-.07,2.6-.19,5.2-.35,7.79-.23,3.61-.36,7.24-.84,10.82-.84,6.25-2.08,12.45-2.75,18.71-.17,1.57.9,3.5,1.9,4.92,4.01,5.67,6.88,11.96,7.87,18.69.85,5.78,2.64,11.63,1.36,17.64-.2.95-.34,2.12.02,2.97,4.09,9.7-.44,19.32-.48,28.97-.03,9.04-3.18,18.02-3.85,27.11-.64,8.73-.3,17.61.52,26.34.37,3.91,3.17,7.54,4.46,11.43.51,1.53.36,3.62-.28,5.12-1.59,3.79-1.69,6.14,1.09,8.91,5.06,5.03,8.89,10.71,10.8,17.65.25.92.9,1.76,1.49,2.55,7.06,9.47,10.85,20.27,13.45,31.69,1.15,5.05,3.8,9.74,5.04,14.78,1.71,6.94,6.56,12.79,6.49,20.4-.03,2.82,1.7,5.66,2.67,8.47.54,1.56,1.8,3.17,1.62,4.62-.61,5.01-1.13,9.89.31,14.91.85,2.98.18,6.45,1.23,9.32,2.61,7.14,6.01,13.99,8.74,21.09,2.95,7.68,6.17,15.23,7.42,23.55.85,5.65,1.61,11.13.76,16.82-.2,1.36.22,3.21,1.07,4.26,4.78,5.93,2.44,12.71,2.61,19.19.07,2.61-.34,5.3.12,7.84,1.29,7.19,3.08,14.29,4.32,21.48.61,3.5.27,7.16.71,10.7.22,1.75,1.23,3.41,1.89,5.1H0ZM276.56,71.76c-.83,4.67.73,8.68,4.36,10.58,4.47,2.33,9.54,4.1,14.53,4.7,6.73.81,13.62.35,20.44.29,2.78-.03,4.6-1.7,4.06-4.49-.58-3.02-1.36-6.25-3.02-8.75-3.66-5.55-9.4-9.06-15.78-9.49-6.66-.45-14.08-1.81-19.59,4.41-1.12,1.27-3.12,1.76-5,2.76ZM155.98,89.03c1.83.13,2.53.38,2.73.17,3.85-4.08,7.84-8.06,11.36-12.41,1.51-1.86-.12-3.75-2.16-3.94-6.2-.58-12.31-2.01-18.66.07-7.37,2.41-12.96,7.01-18.03,12.49-.79.85-1.29,2.29-1.31,3.46-.04,2.11.54,4.23.56,6.35.03,2.54,1.04,3.7,3.62,3.48,1.15-.1,2.34.1,3.48-.04,6.1-.73,10.39-4.96,9.9-9.7-.62-6,1.22-8.97,6.95-11.56,2.25-1.02,4.23-1.01,5.75,1.08,1.53,2.11,1.73,4.26-.3,6.28-1.11,1.12-2.14,2.32-3.91,4.27Z"/>
    <path class="cls-1" d="M303.66,75.7c-.35,1.19-.64,3.21-1.52,4.94-2.62,5.19-7.22,5.74-10.99,1.39-1.07-1.23-1.92-2.68-2.74-4.11-1.61-2.81-2.1-5.71.52-8.16,2.35-2.19,5.11-4.09,8.46-2.46,3.13,1.52,6.11,3.47,6.26,8.39Z"/>
  </g>
</svg>